# xmcd CD database file
#
# Track frame offsets:
#	150
#	10072
#	22554
#	33417
#	45099
#	55350
#	71588
#	79900
#	94435
#	103903
#	117588
#	128648
#	141766
#	153527
#	169896
#	184936
#	195214
#	207692
#	218013
#	234254
#	245636
#	256718
#	266032
#	278429
#	289106
#	303624
#	315844
#	332592
#
# Disc length: 4610 seconds
#
# Revision: 0
# Processed by: cddbd v1.5.2PL0 Copyright (c) Steve Scherf et al.
# Submitted via: CDex 1.51
#
DISCID=8712001c
DTITLE=Hank Snow - Snow In Hawaii
DYEAR=2008
DGENRE=Country
TTITLE0=Hula Love [1966]
TTITLE1=Beyond The Reef [1967]
TTITLE2=On The Beach At Waikiki [1967]
TTITLE3=Hawaiian Sunset [1967]
TTITLE4=My Little Grass Shack In Kealakekua, Hawaii [1967]
TTITLE5=Tradewinds [1967]
TTITLE6=Don't Sing Aloha When I Go [1967]
TTITLE7=Blue For Old Hawaii [1967]
TTITLE8=Hawaiian Cowboy [1967]
TTITLE9=To You My Sweetheart, Aloha [1967]
TTITLE10=Cry My Guitar, Cry On [1967]
TTITLE11=Oahu Rose [1967]
TTITLE12=Dreamer's Island [1992]
TTITLE13=Bluebird Island [1951]
TTITLE14=On That Old Hawaiian Shore With You [1963]
TTITLE15=Everybody Does It In Hawaii [1970]
TTITLE16=Tears In The Tradewinds [1965]
TTITLE17=Pearly Shells [1992]
TTITLE18=Now Is The Hour [1992]
TTITLE19=Hula Love [1978]
TTITLE20=Everybody Does It In Hawaii [1969]
TTITLE21=Hula Rock [1956]
TTITLE22=A Message From The Tradewinds [1952]
TTITLE23=Hilo March [1957]
TTITLE24=Sing Me A Song Of The Islands [1957]
TTITLE25=Bluebird Island [1960]
TTITLE26=Under Hawaiian Skies [1941]
TTITLE27=My Kalua Sweetheart [1945]
EXTD=YEAR: 2008
EXTT0=
EXTT1=
EXTT2=
EXTT3=
EXTT4=
EXTT5=
EXTT6=
EXTT7=
EXTT8=
EXTT9=
EXTT10=
EXTT11=
EXTT12=
EXTT13=
EXTT14=
EXTT15=
EXTT16=
EXTT17=
EXTT18=
EXTT19=
EXTT20=
EXTT21=
EXTT22=
EXTT23=
EXTT24=
EXTT25=
EXTT26=
EXTT27=
PLAYORDER=
